<?xml version="1.0" encoding="utf-8"?>
<!-- Generator: Adobe Illustrator 19.0.0, SVG Export Plug-In . SVG Version: 6.00 Build 0)  -->
<svg version="1.1" id="BeBold" xmlns="http://www.w3.org/2000/svg" xmlns:xlink="http://www.w3.org/1999/xlink" x="0px" y="0px"
	 viewBox="-29 33.6 14 14" style="enable-background:new -29 33.6 14 14;" xml:space="preserve">
<style type="text/css">
	.st0{fill:#51ACAD;}
</style>
<path id="Add-circle" class="st0" d="M-22,33.6c-3.9,0-7,3.1-7,7s3.1,7,7,7s7-3.1,7-7S-18.1,33.6-22,33.6z M-19.2,41.6H-21v1.8
	c0,0.5-0.4,1-1,1c-0.5,0-1-0.4-1-1c0,0,0,0,0,0v-1.8h-1.8c-0.5,0-1-0.5-1-1c0-0.5,0.4-0.9,1-1h1.8v-1.8c0-0.5,0.4-1,1-1
	c0.5,0,1,0.4,1,1c0,0,0,0,0,0v1.8h1.8c0.5,0,1,0.5,1,1C-18.3,41.2-18.7,41.6-19.2,41.6z"/>
</svg>
