<?xml version="1.0" encoding="utf-8"?>
<!-- Generator: Adobe Illustrator 19.0.0, SVG Export Plug-In . SVG Version: 6.00 Build 0)  -->
<svg version="1.1" id="Capa_1" xmlns="http://www.w3.org/2000/svg" xmlns:xlink="http://www.w3.org/1999/xlink" x="0px" y="0px"
	 viewBox="223 -224.3 469.3 469.3" style="enable-background:new 223 -224.3 469.3 469.3;" xml:space="preserve">
<style type="text/css">
	.st0{fill:#B0FDFD;}
</style>
<g>
	<g>
		<g>
			<path class="st0" d="M521.7,53C464.8,53,351,81.5,351,138.3V181h341.3v-42.7C692.3,81.5,578.5,53,521.7,53z"/>
			<path class="st0" d="M521.7,10.3C568.8,10.3,607-28,607-75c0-47.1-38.2-85.3-85.3-85.3s-85.3,38.2-85.3,85.3
				C436.3-28,474.5,10.3,521.7,10.3z"/>
			<polygon class="st0" points="393.7,-32.3 329.7,-32.3 329.7,-96.3 287,-96.3 287,-32.3 223,-32.3 223,10.3 287,10.3 287,74.3 
				329.7,74.3 329.7,10.3 393.7,10.3 			"/>
		</g>
	</g>
</g>
</svg>
