<?xml version="1.0" encoding="utf-8"?>
<!-- Generator: Adobe Illustrator 19.0.0, SVG Export Plug-In . SVG Version: 6.00 Build 0)  -->
<svg version="1.1" id="BeBold" xmlns="http://www.w3.org/2000/svg" xmlns:xlink="http://www.w3.org/1999/xlink" x="0px" y="0px"
	 viewBox="-4 4 14 14" style="enable-background:new -4 4 14 14;" xml:space="preserve">
<style type="text/css">
	.st0{fill:#A1A1A1;}
</style>
<path id="Arrow-down-1" class="st0" d="M-2.5,7c0.4,0,0.8,0.1,1,0.4L3,11.6l4.5-4.2c0.6-0.5,1.5-0.5,2.1,0c0.5,0.5,0.6,1.3,0.1,1.9
	c0,0-0.1,0.1-0.1,0.1L4,14.6c-0.6,0.5-1.5,0.5-2.1,0l-5.5-5.2C-4.1,8.9-4.1,8-3.6,7.5c0,0,0.1-0.1,0.1-0.1C-3.3,7.1-2.9,7-2.5,7"/>
</svg>
