<?xml version="1.0" encoding="utf-8"?>
<!-- Generator: Adobe Illustrator 19.0.0, SVG Export Plug-In . SVG Version: 6.00 Build 0)  -->
<svg version="1.1" id="BeBold" xmlns="http://www.w3.org/2000/svg" xmlns:xlink="http://www.w3.org/1999/xlink" x="0px" y="0px"
	 viewBox="-4 4 14 14" style="enable-background:new -4 4 14 14;" xml:space="preserve">
<style type="text/css">
	.st0{fill:#51ACAD;}
</style>
<path id="Arrow-left-2" class="st0" d="M2.8,6.9l-3.1,3l9.2,0C9.5,10,10,10.4,10,11c0,0,0,0,0,0l0,0c0,0.6-0.5,1.1-1.1,1.1
	c0,0,0,0,0,0l-9.2,0l3,3.1c0.4,0.4,0.4,1.1,0,1.5c0,0,0,0,0,0l0,0c-0.4,0.4-1.1,0.4-1.5,0l-5-5c-0.3-0.3-0.3-0.9,0-1.2l5.1-5
	c0.4-0.4,1.1-0.4,1.5,0l0,0C3.2,5.8,3.2,6.5,2.8,6.9C2.8,6.9,2.8,6.9,2.8,6.9z"/>
</svg>
