<?xml version="1.0" encoding="utf-8"?>
<!-- Generator: Adobe Illustrator 19.0.0, SVG Export Plug-In . SVG Version: 6.00 Build 0)  -->
<svg version="1.1" id="Layer_1" xmlns="http://www.w3.org/2000/svg" xmlns:xlink="http://www.w3.org/1999/xlink" x="0px" y="0px"
	 viewBox="0 0 1.6 4" style="enable-background:new 0 0 1.6 4;" xml:space="preserve">
<style type="text/css">
	.st0{fill:#10263A;}
</style>
<path id="XMLID_3_" class="st0" d="M0.8,0L0,1.1c0,0,0,0,0,0c0,0,0,0,0,0h1.5c0,0,0,0,0,0c0,0,0,0,0,0c0,0,0,0,0,0L0.8,0
	C0.8,0,0.8,0,0.8,0C0.8,0,0.8,0,0.8,0"/>
<path id="XMLID_2_" class="st0" d="M0.8,4l0.8-1.1c0,0,0,0,0,0c0,0,0,0,0,0H0c0,0,0,0,0,0c0,0,0,0,0,0c0,0,0,0,0,0L0.8,4
	C0.8,4,0.8,4,0.8,4C0.8,4,0.8,4,0.8,4"/>
</svg>
