<?xml version="1.0" encoding="utf-8"?>
<!-- Generator: Adobe Illustrator 19.0.0, SVG Export Plug-In . SVG Version: 6.00 Build 0)  -->
<svg version="1.1" id="BeBold" xmlns="http://www.w3.org/2000/svg" xmlns:xlink="http://www.w3.org/1999/xlink" x="0px" y="0px"
	 viewBox="-4 4 14 14" style="enable-background:new -4 4 14 14;" xml:space="preserve">
<style type="text/css">
	.st0{fill:#E71E26;}
</style>
<path id="Ban" class="st0" d="M3,18.1c-3.9,0-7-3.1-7-7s3.1-7,7-7s7,3.1,7,7l0,0C10,14.9,6.9,18.1,3,18.1z M1.3,15.4
	c2.4,1,5.1-0.2,6.1-2.6c0.4-1.1,0.4-2.3,0-3.4C7.2,9.1,6.9,9,6.7,9.1c-0.1,0-0.1,0.1-0.2,0.1l-5.4,5.4c-0.2,0.2-0.2,0.5,0,0.7
	C1.2,15.3,1.2,15.4,1.3,15.4z M2.2,6.5c-2.5,0.5-4.2,2.9-3.8,5.4c0.1,0.3,0.1,0.6,0.3,0.9c0.1,0.3,0.4,0.4,0.7,0.3
	c0.1,0,0.1-0.1,0.2-0.1l5.4-5.4c0.2-0.2,0.2-0.5,0-0.7c0,0-0.1-0.1-0.2-0.1C3.9,6.4,3,6.3,2.2,6.5L2.2,6.5z"/>
</svg>
