<?xml version="1.0" encoding="utf-8"?>
<!-- Generator: Adobe Illustrator 19.0.0, SVG Export Plug-In . SVG Version: 6.00 Build 0)  -->
<svg version="1.1" id="BeBold" xmlns="http://www.w3.org/2000/svg" xmlns:xlink="http://www.w3.org/1999/xlink" x="0px" y="0px"
	 viewBox="-4 4 14 14" style="enable-background:new -4 4 14 14;" xml:space="preserve">
<style type="text/css">
	.st0{fill:#8DC63F;}
</style>
<g id="Check">
	<path class="st0" d="M0,15.8l-3.5-3.5c-0.7-0.7-0.7-1.8,0-2.4c0,0,0,0,0,0l0,0c0.7-0.7,1.8-0.7,2.4,0L1.1,12c0.1,0.1,0.2,0.1,0.3,0
		l5.6-5.6c0.7-0.7,1.8-0.7,2.4,0l0,0c0.7,0.7,0.7,1.8,0,2.4c0,0,0,0,0,0l-6.9,6.9C1.8,16.5,0.7,16.5,0,15.8z"/>
</g>
</svg>
