<?xml version="1.0" encoding="utf-8"?>
<!-- Generator: Adobe Illustrator 19.0.0, SVG Export Plug-In . SVG Version: 6.00 Build 0)  -->
<svg version="1.1" id="BeBold" xmlns="http://www.w3.org/2000/svg" xmlns:xlink="http://www.w3.org/1999/xlink" x="0px" y="0px"
	 viewBox="-4 4 14 14" style="enable-background:new -4 4 14 14;" xml:space="preserve">
<style type="text/css">
	.st0{fill:#06FAFD;}
</style>
<g id="Date">
	<path class="st0" d="M-0.5,7.5c0.5,0,0.9-0.4,0.9-0.9c0,0,0,0,0,0V5c0-0.5-0.4-0.9-0.9-0.9S-1.4,4.5-1.4,5c0,0,0,0,0,0v1.6
		C-1.4,7.1-1,7.5-0.5,7.5C-0.5,7.5-0.5,7.5-0.5,7.5z"/>
	<path class="st0" d="M6.5,7.5c0.5,0,0.9-0.4,0.9-0.9c0,0,0,0,0,0V5c0-0.5-0.4-0.9-0.9-0.9S5.6,4.5,5.6,5c0,0,0,0,0,0v1.6
		C5.6,7.1,6,7.5,6.5,7.5C6.5,7.5,6.5,7.5,6.5,7.5z"/>
	<path class="st0" d="M8.7,5.3v1.5c0,1.1-0.8,2.1-1.9,2.3C5.5,9.2,4.5,8.3,4.3,7.1c0-0.1,0-0.1,0-0.2V5.6c0-0.2-0.2-0.4-0.4-0.4H2
		c-0.2,0-0.4,0.2-0.4,0.4c0,0,0,0,0,0v1.1c0,1.1-0.8,2.1-1.9,2.3c-1.2,0.1-2.3-0.7-2.4-1.9c0-0.1,0-0.1,0-0.2V5.3
		C-3.4,5.3-4,5.9-4,6.7v9.8c0,0.8,0.6,1.4,1.4,1.4H8.6c0.8,0,1.4-0.6,1.4-1.4V6.7C10,5.9,9.4,5.3,8.7,5.3z M7.5,14.8
		c0,0.5-0.4,0.9-0.9,0.9h-7.5c-0.5,0-0.9-0.4-0.9-0.9v-3.3c0-0.5,0.4-0.9,0.9-0.9h0h7.5c0.5,0,0.9,0.4,0.9,0.9L7.5,14.8z"/>
</g>
</svg>
