<?xml version="1.0" encoding="utf-8"?>
<!-- Generator: Adobe Illustrator 19.0.0, SVG Export Plug-In . SVG Version: 6.00 Build 0)  -->
<svg version="1.1" id="BeBold" xmlns="http://www.w3.org/2000/svg" xmlns:xlink="http://www.w3.org/1999/xlink" x="0px" y="0px"
	 viewBox="-4 4 14 14" style="enable-background:new -4 4 14 14;" xml:space="preserve">
<style type="text/css">
	.st0{fill:#B0FDFD;}
</style>
<g id="Delete">
	<path class="st0" d="M9.1,4.8H5.5V4.7C5.5,4.1,5,4,4.5,4H1.5c-0.6,0-1,0.1-1,0.7v0.2h-3.6c-0.3,0-0.6,0.3-0.6,0.6c0,0,0,0,0,0v1.2
		c0,0.3,0.3,0.6,0.6,0.6H9.1c0.3,0,0.6-0.3,0.6-0.6c0,0,0,0,0,0V5.4C9.7,5.1,9.4,4.8,9.1,4.8L9.1,4.8z"/>
	<path class="st0" d="M7.8,8.8h-9.6c-0.3,0-0.6,0.3-0.6,0.6c0,0,0,0,0,0.1l1,7.4c0.1,0.6,0.6,1,1.2,1h6.4c0.6,0,1.1-0.5,1.2-1l1-7.4
		C8.4,9.2,8.2,8.9,7.8,8.8C7.8,8.8,7.8,8.8,7.8,8.8z"/>
</g>
</svg>
