<?xml version="1.0" encoding="utf-8"?>
<!-- Generator: Adobe Illustrator 19.0.0, SVG Export Plug-In . SVG Version: 6.00 Build 0)  -->
<svg version="1.1" id="Layer_1" xmlns="http://www.w3.org/2000/svg" xmlns:xlink="http://www.w3.org/1999/xlink" x="0px" y="0px"
	 viewBox="0 0 8.9 5.9" style="enable-background:new 0 0 8.9 5.9;" xml:space="preserve">
<style type="text/css">
	.st0{fill:#F5F5F5;}
	.st1{fill:#FF4B55;}
	.st2{fill:#41479B;}
	.st3{fill:#FFE15A;}
</style>
<path id="XMLID_15_" class="st0" d="M0.1,5.9l4.4-2.9L0.1,0C0,0.1,0,0.1,0,0.2v5.6C0,5.8,0,5.8,0.1,5.9"/>
<path id="XMLID_14_" class="st1" d="M0.1,5.9C0.1,5.9,0.1,5.9,0.1,5.9l8.8,0C8.9,5.9,9,5.8,9,5.7V2.9H4.5L0.1,5.9z"/>
<path id="XMLID_13_" class="st2" d="M0.1,0C0.1,0,0.1,0,0.1,0l8.8,0C8.9,0,9,0.1,9,0.2V3H4.5L0.1,0z"/>
<polygon id="XMLID_12_" class="st3" points="1.6,2.9 1.4,2.2 1.6,1.9 1.8,2.2 "/>
<polygon id="XMLID_11_" class="st3" points="1.6,2.9 1.8,3.7 1.6,4 1.4,3.7 "/>
<polygon id="XMLID_10_" class="st3" points="1.6,2.9 0.9,3.1 0.6,2.9 0.9,2.8 "/>
<polygon id="XMLID_9_" class="st3" points="1.6,2.9 2.4,2.8 2.6,2.9 2.4,3.1 "/>
<polygon id="XMLID_8_" class="st3" points="1.6,2.9 2,2.3 2.3,2.2 2.3,2.5 "/>
<polygon id="XMLID_7_" class="st3" points="1.6,2.9 1.2,3.6 0.9,3.7 1,3.4 "/>
<polygon id="XMLID_6_" class="st3" points="1.6,2.9 1,2.5 0.9,2.2 1.2,2.3 "/>
<polygon id="XMLID_5_" class="st3" points="1.6,2.9 2.3,3.4 2.3,3.7 2,3.6 "/>
<path id="XMLID_4_" class="st3" d="M0.4,0.8l0,0.2L0.3,1c0,0,0,0,0,0l0.2,0l0,0.2c0,0,0,0,0,0l0.1-0.2l0.2,0c0,0,0,0,0,0L0.7,1
	l0.1-0.2c0,0,0,0,0,0L0.6,0.9L0.4,0.8C0.4,0.7,0.4,0.7,0.4,0.8"/>
<path id="XMLID_3_" class="st3" d="M0.5,4.6l0,0.2l-0.2,0c0,0,0,0,0,0L0.4,5l0,0.2c0,0,0,0,0,0L0.6,5l0.2,0.1c0,0,0,0,0,0L0.7,4.9
	l0.1-0.1c0,0,0,0,0,0l-0.2,0L0.5,4.6C0.5,4.6,0.5,4.6,0.5,4.6"/>
<path id="XMLID_2_" class="st3" d="M3.6,2.7L3.5,2.8L3.3,2.8c0,0,0,0,0,0L3.4,3L3.2,3.1c0,0,0,0,0,0l0.2-0.1l0.1,0.2c0,0,0,0,0,0
	l0-0.2L3.8,3c0,0,0,0,0-0.1L3.6,2.9L3.6,2.7C3.6,2.6,3.6,2.6,3.6,2.7"/>
</svg>
