<?xml version="1.0" encoding="utf-8"?>
<!-- Generator: Adobe Illustrator 19.0.0, SVG Export Plug-In . SVG Version: 6.00 Build 0)  -->
<svg version="1.1" id="BeBold" xmlns="http://www.w3.org/2000/svg" xmlns:xlink="http://www.w3.org/1999/xlink" x="0px" y="0px"
	 viewBox="-4 4 14 14" style="enable-background:new -4 4 14 14;" xml:space="preserve">
<style type="text/css">
	.st0{fill:#B0FDFD;}
</style>
<g id="Info">
	<circle class="st0" cx="2.8" cy="6.2" r="2.2"/>
	<path class="st0" d="M5.4,16.3c-0.4,0-0.7-0.3-0.7-0.7v-5c0-0.4-0.3-0.7-0.7-0.7l0,0H0.6C0.3,9.9,0,10.2,0,10.6l0,0V11
		c0,0.4,0.3,0.7,0.7,0.7l0,0c0.4,0,0.7,0.3,0.7,0.7v3.3c0,0.4-0.3,0.7-0.7,0.7l0,0c-0.4,0-0.7,0.3-0.7,0.7l0,0v0.4
		C0,17.7,0.3,18,0.6,18h4.7C5.7,18,6,17.7,6,17.3l0,0v-0.4C6,16.5,5.7,16.3,5.4,16.3z"/>
</g>
</svg>
