<?xml version="1.0" encoding="utf-8"?>
<!-- Generator: Adobe Illustrator 19.0.0, SVG Export Plug-In . SVG Version: 6.00 Build 0)  -->
<svg version="1.1" id="Layer_1" xmlns="http://www.w3.org/2000/svg" xmlns:xlink="http://www.w3.org/1999/xlink" x="0px" y="0px"
	 viewBox="0 0 150.1 28" style="enable-background:new 0 0 150.1 28;" xml:space="preserve">
<style type="text/css">
	.st0{fill:#FFFFFF;}
	.st1{fill:#25ABE2;}
</style>
<g>
	<g>
		<path class="st0" d="M36.6,19.8c-1.1-1.2-1.6-3.1-1.6-5.6c0-4.9,2.2-7.4,6.7-7.4c0.7,0,1.3,0.1,2,0.2c0.6,0.1,1.1,0.3,1.5,0.5
			c0.3,0.2,0.5,0.4,0.5,0.5c0,0.2-0.1,0.4-0.3,0.7c-0.2,0.3-0.3,0.5-0.4,0.5c0,0-0.2-0.1-0.5-0.3c-0.3-0.2-0.7-0.3-1.1-0.5
			c-0.4-0.1-1-0.2-1.5-0.2c-1.7,0-2.9,0.5-3.7,1.4c-0.8,0.9-1.2,2.4-1.2,4.4c0,2,0.4,3.4,1.2,4.4c0.8,0.9,2,1.4,3.6,1.4
			c0.7,0,1.3-0.1,1.7-0.2c0.5-0.2,1-0.4,1.4-0.6c0.2-0.1,0.3-0.2,0.4-0.2c0.1,0,0.3,0.2,0.5,0.5c0.2,0.3,0.3,0.5,0.3,0.7
			c0,0.2-0.2,0.4-0.7,0.7c-0.4,0.2-0.9,0.4-1.6,0.6c-0.6,0.2-1.3,0.2-2.1,0.2C39.3,21.6,37.6,21,36.6,19.8z"/>
		<path class="st0" d="M49.1,20.9c-0.5-0.4-0.8-1.2-0.8-2.2V6.3c0-0.3,0.3-0.5,0.8-0.5h0.1C49.7,5.9,50,6,50,6.3v12.2
			c0,0.6,0.1,1,0.3,1.2c0.2,0.2,0.5,0.3,0.8,0.3c0.3,0,0.5,0,0.6-0.1C51.9,20,52,20,52,20c0.1,0,0.2,0.1,0.3,0.4
			c0.1,0.3,0.1,0.5,0.1,0.6c0,0.4-0.5,0.6-1.5,0.6C50.3,21.6,49.6,21.3,49.1,20.9z"/>
		<path class="st0" d="M55.1,20.1c-0.8-0.9-1.2-2.3-1.2-4.1c0-1.8,0.4-3.2,1.2-4.1c0.8-1,2-1.4,3.6-1.4c1.5,0,2.7,0.5,3.5,1.4
			c0.8,1,1.2,2.3,1.2,4.2c0,1.8-0.4,3.2-1.2,4.1c-0.8,0.9-2,1.4-3.5,1.4C57.1,21.6,55.9,21.1,55.1,20.1z M60.8,19.1
			c0.5-0.7,0.7-1.7,0.7-3.1c0-1.4-0.2-2.4-0.7-3.1c-0.5-0.7-1.2-1-2.2-1c-1,0-1.7,0.3-2.2,1c-0.5,0.7-0.7,1.7-0.7,3.1
			c0,1.4,0.2,2.4,0.7,3.1s1.2,1,2.2,1C59.6,20.1,60.4,19.7,60.8,19.1z"/>
		<path class="st0" d="M67,20.7c-0.6-0.6-0.9-1.4-0.9-2.5V11c0-0.3,0.3-0.5,0.8-0.5H67c0.6,0,0.8,0.2,0.8,0.5v7
			c0,0.6,0.2,1.1,0.5,1.5c0.4,0.4,0.9,0.5,1.6,0.5c0.5,0,0.9-0.1,1.4-0.4c0.5-0.3,0.9-0.6,1.2-1.1V11c0-0.3,0.3-0.5,0.8-0.5h0.1
			c0.6,0,0.8,0.2,0.8,0.5v7.4c0,0.9,0,1.6,0.1,2c0.1,0.4,0.1,0.6,0.1,0.7c0,0.2-0.1,0.3-0.4,0.4c-0.3,0.1-0.5,0.1-0.7,0.1
			c-0.2,0-0.3-0.1-0.4-0.3c-0.1-0.2-0.2-0.4-0.2-0.7s-0.1-0.4-0.1-0.5c-0.4,0.5-0.9,0.9-1.5,1.1c-0.6,0.3-1.1,0.4-1.7,0.4
			C68.4,21.6,67.6,21.3,67,20.7z"/>
		<path class="st0" d="M79,20.8c-0.6-0.5-1.1-1.1-1.4-2c-0.3-0.8-0.5-1.8-0.5-2.9c0-1.2,0.2-2.2,0.5-3c0.4-0.8,0.8-1.5,1.5-1.9
			c0.6-0.4,1.4-0.6,2.2-0.6c0.6,0,1.1,0.1,1.6,0.3c0.5,0.2,0.9,0.4,1.4,0.8V6.3c0-0.3,0.3-0.5,0.8-0.5h0.1C85.8,5.9,86,6,86,6.3
			v12.1c0,0.9,0,1.6,0.1,2s0.1,0.6,0.1,0.7c0,0.2-0.1,0.3-0.4,0.4c-0.3,0.1-0.5,0.1-0.7,0.1c-0.2,0-0.3-0.1-0.4-0.3
			c-0.1-0.2-0.2-0.4-0.2-0.7c0-0.2-0.1-0.4-0.1-0.5c-1,1-2.1,1.6-3.3,1.6C80.3,21.6,79.6,21.3,79,20.8z M82.9,19.7
			c0.5-0.2,0.9-0.6,1.4-1.1v-5.7c-0.7-0.6-1.6-0.9-2.5-0.9c-0.9,0-1.6,0.3-2.1,1s-0.7,1.6-0.7,2.9c0,1.3,0.2,2.4,0.7,3.1
			c0.4,0.7,1.1,1.1,1.9,1.1C82,20,82.4,19.9,82.9,19.7z"/>
		<path class="st0" d="M95.6,17.1L92,10.7c-0.1-0.2-0.3-0.5-0.5-0.9l-0.1,0c0,0.2,0,0.6,0,1.1V21c0,0.3-0.3,0.5-0.8,0.5h-0.1
			c-0.6,0-0.8-0.2-0.8-0.5V7.3c0-0.3,0.3-0.5,0.8-0.5h0.7c0.4,0,0.7,0.1,0.9,0.4l3.9,6.8c0.2,0.4,0.4,0.9,0.5,1.3
			c0.1-0.3,0.3-0.8,0.6-1.4l3.8-6.7c0.1-0.2,0.4-0.4,0.9-0.4h0.7c0.6,0,0.8,0.2,0.8,0.5V21c0,0.3-0.3,0.5-0.8,0.5h-0.1
			c-0.6,0-0.8-0.2-0.8-0.5v-10c0-0.5,0-0.9,0-1.1l-0.1,0c-0.2,0.4-0.4,0.7-0.5,0.9l-3.6,6.3c-0.1,0.2-0.2,0.3-0.5,0.3h-0.8
			C95.9,17.4,95.7,17.3,95.6,17.1z"/>
		<path class="st0" d="M107.1,8.6V7.4c0-0.3,0.3-0.5,0.9-0.5c0.6,0,0.9,0.2,0.9,0.5v1.2c0,0.3-0.3,0.5-0.9,0.5
			C107.4,9.1,107.1,9,107.1,8.6z M107.1,21V11c0-0.3,0.3-0.5,0.8-0.5h0.1c0.6,0,0.8,0.2,0.8,0.5v10c0,0.3-0.3,0.5-0.8,0.5h-0.1
			C107.4,21.5,107.1,21.3,107.1,21z"/>
		<path class="st0" d="M112.5,21v-7.3c0-0.9,0-1.6-0.1-2c-0.1-0.4-0.1-0.6-0.1-0.7c0-0.2,0.1-0.3,0.4-0.4c0.3-0.1,0.5-0.1,0.7-0.1
			c0.2,0,0.3,0.1,0.4,0.3c0.1,0.2,0.2,0.4,0.2,0.6c0,0.2,0.1,0.4,0.1,0.4c0.4-0.5,0.9-0.9,1.5-1.1c0.6-0.3,1.1-0.4,1.7-0.4
			c1,0,1.9,0.3,2.5,0.9c0.6,0.6,0.9,1.4,0.9,2.5V21c0,0.3-0.3,0.5-0.8,0.5h-0.1c-0.6,0-0.8-0.2-0.8-0.5v-7c0-0.6-0.2-1.1-0.5-1.5
			c-0.4-0.4-0.9-0.5-1.6-0.5c-0.5,0-0.9,0.1-1.4,0.4c-0.5,0.3-0.9,0.6-1.2,1.1V21c0,0.3-0.3,0.5-0.8,0.5h-0.1
			C112.8,21.5,112.5,21.3,112.5,21z"/>
		<path class="st0" d="M124.1,8.6V7.4c0-0.3,0.3-0.5,0.9-0.5c0.6,0,0.9,0.2,0.9,0.5v1.2c0,0.3-0.3,0.5-0.9,0.5
			C124.4,9.1,124.1,9,124.1,8.6z M124.1,21V11c0-0.3,0.3-0.5,0.8-0.5h0.1c0.6,0,0.8,0.2,0.8,0.5v10c0,0.3-0.3,0.5-0.8,0.5h-0.1
			C124.4,21.5,124.1,21.3,124.1,21z"/>
		<path class="st0" d="M129.5,21v-7.3c0-0.9,0-1.6-0.1-2c-0.1-0.4-0.1-0.6-0.1-0.7c0-0.2,0.1-0.3,0.4-0.4c0.3-0.1,0.5-0.1,0.7-0.1
			c0.2,0,0.3,0.1,0.4,0.3c0.1,0.2,0.2,0.4,0.2,0.6c0,0.2,0.1,0.4,0.1,0.4c0.4-0.5,0.9-0.9,1.5-1.1c0.6-0.3,1.1-0.4,1.7-0.4
			c1,0,1.9,0.3,2.5,0.9c0.6,0.6,0.9,1.4,0.9,2.5V21c0,0.3-0.3,0.5-0.8,0.5h-0.1c-0.6,0-0.8-0.2-0.8-0.5v-7c0-0.6-0.2-1.1-0.5-1.5
			c-0.4-0.4-0.9-0.5-1.6-0.5c-0.5,0-0.9,0.1-1.4,0.4c-0.5,0.3-0.9,0.6-1.2,1.1V21c0,0.3-0.3,0.5-0.8,0.5h-0.1
			C129.8,21.5,129.5,21.3,129.5,21z"/>
		<path class="st0" d="M140.3,23.1c0-0.6,0.2-1.1,0.5-1.6c0.3-0.5,0.8-0.8,1.3-1l0,0c-0.5-0.4-0.8-1-0.8-1.7c0-0.8,0.4-1.5,1.1-2
			c-0.6-0.3-1-0.7-1.3-1.2c-0.3-0.5-0.5-1.1-0.5-1.7c0-1,0.4-1.8,1.1-2.4s1.7-1,3-1c0.4,0,0.8,0,1.2,0.1h3.8c0.2,0,0.3,0,0.3,0.1
			c0.1,0.1,0.1,0.3,0.1,0.5v0.2c0,0.2,0,0.4-0.1,0.5c-0.1,0.1-0.2,0.1-0.3,0.1c-0.2,0-0.5,0-0.8,0c-0.3,0-0.6-0.1-0.8-0.1l0,0
			c0.3,0.3,0.4,0.6,0.5,0.9c0.1,0.3,0.1,0.6,0.1,1c0,1-0.4,1.8-1.1,2.4c-0.7,0.6-1.7,1-3,1c-0.6,0-1.1,0.1-1.4,0.3
			c-0.3,0.2-0.5,0.5-0.5,1c0,0.3,0.1,0.6,0.3,0.8c0.2,0.2,0.5,0.3,0.9,0.4c0.3,0.1,0.8,0.1,1.4,0.2l0.6,0.1c1.1,0.1,1.9,0.4,2.5,0.8
			s0.9,1,0.9,1.9c0,1-0.4,1.8-1.3,2.3c-0.8,0.5-2.1,0.8-3.7,0.8C141.7,25.8,140.3,24.9,140.3,23.1z M147,24c0.5-0.3,0.7-0.7,0.7-1.2
			c0-0.4-0.1-0.6-0.4-0.8c-0.3-0.2-0.6-0.3-1-0.4s-0.9-0.2-1.6-0.2c-0.8-0.1-1.4-0.2-1.7-0.3c-0.8,0.4-1.2,1-1.2,1.7
			c0,0.6,0.2,1,0.7,1.2c0.4,0.2,1.2,0.4,2.2,0.4C145.8,24.4,146.5,24.3,147,24z M146.5,15.3c0.4-0.3,0.7-0.8,0.7-1.5
			c0-1.3-0.8-1.9-2.4-1.9c-1.6,0-2.4,0.6-2.4,1.9c0,1.3,0.8,1.9,2.4,1.9C145.5,15.8,146,15.6,146.5,15.3z"/>
	</g>
	<path class="st0" d="M28,13.9c0,7.7-6.3,14-14,14c-7.7,0-14-6.3-14-14c0-7.7,6.3-14,14-14C21.7-0.1,28,6.2,28,13.9"/>
	<path class="st1" d="M7.7,18.4l1.1-0.9h0c-1.4,0-2.6-1.1-2.6-2.6c0-1.1,0.7-2.1,1.8-2.4l0.4-0.1l0-0.4c-0.1-0.9,0.4-1.8,1.1-2.3
		c0.6-0.4,1.4-0.5,2.1-0.4c-0.4-0.4-0.9-0.8-1.1-1.1C9.9,8.3,9.3,8.5,8.8,8.8c-1,0.7-1.5,1.7-1.6,2.8c-1.3,0.6-2.1,1.9-2.1,3.3
		c0,0.2,0,0.5,0.1,0.7C5.5,17,6.5,18,7.7,18.4"/>
	<path class="st1" d="M20.6,11.6c0.5-2.9-1.7-5.5-4.6-5.5c-1.5,0-2.8,0.7-3.7,1.8C12.8,8,13,8,13.2,8c0.1,0,0.3,0,0.5,0.1
		c0.6-0.6,1.5-0.9,2.4-0.9c2,0,3.6,1.6,3.6,3.6c0,0.6-0.1,0.9-0.3,1.4c0.4,0.2,0.4,0.2,0.6,0.3c1.1,0.4,1.8,1.3,1.8,2.4
		c0,0.8-0.4,1.6-1.1,2.1c0.1,0.4,0.1,0.8,0.2,1.1c1.1-0.6,1.9-1.8,1.9-3.2C22.8,13.5,22,12.2,20.6,11.6"/>
	<path class="st1" d="M18.6,17.5h-4.8l-1.4,1h6.7c0,0,0,0,0.1,0C19.1,18.2,18.9,17.9,18.6,17.5"/>
	<path class="st1" d="M17,14.7c1.1,1.4,2.2,2.7,3.2,4.1l0,0c0.2-2-0.5-3.9-1.6-5.8l0.2-0.9l-1.1-1.3L16.9,11
		c-1.6-1.4-3.3-2.4-5.3-2.6c0,0,0,0,0,0l0,0c1.2,1.2,2.3,2.5,3.4,3.8l-0.4,1.3l1.1,1.3L17,14.7z"/>
	
		<rect x="5.9" y="16.9" transform="matrix(-0.7691 0.6392 -0.6392 -0.7691 30.4345 24.6342)" class="st1" width="9.8" height="1.9"/>
</g>
</svg>
