<?xml version="1.0" encoding="utf-8"?>
<!-- Generator: Adobe Illustrator 19.0.0, SVG Export Plug-In . SVG Version: 6.00 Build 0)  -->
<svg version="1.1" id="Layer_1" xmlns="http://www.w3.org/2000/svg" xmlns:xlink="http://www.w3.org/1999/xlink" x="0px" y="0px"
	 viewBox="0 0 13.7 10.4" style="enable-background:new 0 0 13.7 10.4;" xml:space="preserve">
<style type="text/css">
	.st0{fill:#4081C1;}
</style>
<path id="XMLID_3_" class="st0" d="M0,1.7v7c0,1,0.8,1.7,1.7,1.7h5.6c1,0,1.7-0.8,1.7-1.7V7.6c0-0.2-0.2-0.3-0.3-0.3
	c-0.2,0-0.3,0.2-0.3,0.3v1.1c0,0.6-0.5,1.1-1.1,1.1H1.7c-0.6,0-1.1-0.5-1.1-1.1v-7c0-0.6,0.5-1.1,1.1-1.1h5.6c0.6,0,1.1,0.5,1.1,1.1
	v1.1c0,0.2,0.2,0.3,0.3,0.3c0.2,0,0.3-0.2,0.3-0.3V1.7c0-1-0.8-1.7-1.7-1.7H1.7C0.8,0,0,0.8,0,1.7"/>
<path id="XMLID_2_" class="st0" d="M10.8,7.8C10.9,7.9,11,7.9,11,7.9c0.1,0,0.2,0,0.2-0.1l2.4-2.4c0.1-0.1,0.1-0.3,0-0.5l-2.4-2.4
	c-0.1-0.1-0.4-0.1-0.5,0c-0.1,0.1-0.1,0.3,0,0.5l1.8,1.8H6.1C5.9,4.9,5.8,5,5.8,5.2c0,0.2,0.2,0.3,0.3,0.3h6.4l-1.8,1.8
	C10.7,7.5,10.7,7.7,10.8,7.8"/>
</svg>
