<?xml version="1.0" encoding="utf-8"?>
<!-- Generator: Adobe Illustrator 19.0.0, SVG Export Plug-In . SVG Version: 6.00 Build 0)  -->
<svg version="1.1" id="Layer_1" xmlns="http://www.w3.org/2000/svg" xmlns:xlink="http://www.w3.org/1999/xlink" x="0px" y="0px"
	 viewBox="0 0 41.4 41.4" style="enable-background:new 0 0 41.4 41.4;" xml:space="preserve">
<style type="text/css">
	.st0{fill:#4B5F6D;}
	.st1{fill:#FFFFFF;}
</style>
<path id="XMLID_4_" class="st0" d="M41.4,20.7c0,11.4-9.3,20.7-20.7,20.7C9.3,41.4,0,32.2,0,20.7S9.3,0,20.7,0
	C32.2,0,41.4,9.3,41.4,20.7"/>
<path id="XMLID_3_" class="st1" d="M13.2,15.9v9.7c0,1.3,1.1,2.4,2.4,2.4h7.8c1.3,0,2.4-1.1,2.4-2.4V24c0-0.3-0.2-0.5-0.5-0.5
	c-0.3,0-0.5,0.2-0.5,0.5v1.6c0,0.8-0.7,1.5-1.5,1.5h-7.8c-0.8,0-1.5-0.7-1.5-1.5v-9.7c0-0.8,0.7-1.5,1.5-1.5h7.8
	c0.8,0,1.5,0.7,1.5,1.5v1.6c0,0.3,0.2,0.5,0.5,0.5c0.3,0,0.5-0.2,0.5-0.5v-1.6c0-1.3-1.1-2.4-2.4-2.4h-7.8
	C14.2,13.5,13.2,14.5,13.2,15.9"/>
<path id="XMLID_2_" class="st1" d="M28.2,24.3c0.1,0.1,0.2,0.1,0.3,0.1c0.1,0,0.2,0,0.3-0.1l3.3-3.3c0.2-0.2,0.2-0.5,0-0.7l-3.3-3.3
	c-0.2-0.2-0.5-0.2-0.7,0c-0.2,0.2-0.2,0.5,0,0.7l2.5,2.5h-9c-0.3,0-0.5,0.2-0.5,0.5c0,0.3,0.2,0.5,0.5,0.5h9l-2.5,2.5
	C28,23.8,28,24.1,28.2,24.3"/>
</svg>
