<?xml version="1.0" encoding="utf-8"?>
<!-- Generator: Adobe Illustrator 19.0.0, SVG Export Plug-In . SVG Version: 6.00 Build 0)  -->
<svg version="1.1" id="Layer_1" xmlns="http://www.w3.org/2000/svg" xmlns:xlink="http://www.w3.org/1999/xlink" x="0px" y="0px"
	 viewBox="0 0 21.5 21.5" style="enable-background:new 0 0 21.5 21.5;" xml:space="preserve">
<style type="text/css">
	.st0{fill:#3295E0;}
	.st1{fill:#FFFFFF;}
</style>
<g id="XMLID_11_">
	<path id="XMLID_12_" class="st0" d="M10.8,21.5C4.8,21.5,0,16.7,0,10.8S4.8,0,10.8,0s10.8,4.8,10.8,10.8S16.7,21.5,10.8,21.5z
		 M10.8,0.7c-5.5,0-10,4.5-10,10s4.5,10,10,10c5.5,0,10-4.5,10-10S16.3,0.7,10.8,0.7z"/>
</g>
<g id="XMLID_2_">
	<path id="XMLID_3_" class="st1" d="M15.2,10.2c-0.5,0-1,0.3-1.3,0.6l-0.8-0.4c0.1-0.2,0.1-0.4,0.1-0.7c0-0.5-0.2-0.9-0.4-1.3
		l0.8-0.6c0.3,0.2,0.6,0.3,1,0.3c0.9,0,1.7-0.8,1.7-1.7s-0.8-1.7-1.7-1.7c-0.9,0-1.7,0.8-1.7,1.7c0,0.3,0.1,0.5,0.2,0.7L12.2,8
		c-0.3-0.2-0.7-0.3-1.2-0.3c-0.4,0-0.7,0.1-1,0.2L9.5,7.2c0.2-0.3,0.3-0.6,0.3-1c0-0.9-0.8-1.7-1.7-1.7c-0.9,0-1.7,0.8-1.7,1.7
		s0.8,1.7,1.7,1.7c0.3,0,0.5-0.1,0.8-0.2l0.5,0.6C9,8.7,8.8,9.3,8.8,9.8c0,0.2,0,0.3,0.1,0.5l-1.1,0.5C7.4,10.3,6.9,10,6.3,10
		c-0.9,0-1.7,0.8-1.7,1.7c0,0.9,0.8,1.7,1.7,1.7S8,12.6,8,11.7c0-0.1,0-0.1,0-0.2L9.2,11c0.3,0.5,0.8,0.8,1.4,0.9l0,1.7
		c-0.7,0.2-1.2,0.8-1.2,1.6c0,0.9,0.8,1.7,1.7,1.7c0.9,0,1.7-0.8,1.7-1.7c0-0.8-0.6-1.5-1.4-1.6l0-1.7c0.5-0.1,1-0.4,1.4-0.8
		l0.8,0.4c0,0.1,0,0.2,0,0.3c0,0.9,0.8,1.7,1.7,1.7c0.9,0,1.7-0.8,1.7-1.7C16.9,11,16.1,10.2,15.2,10.2 M6.3,12.6
		c-0.5,0-0.9-0.4-0.9-0.9c0-0.5,0.4-0.9,0.9-0.9c0.5,0,0.9,0.4,0.9,0.9C7.2,12.2,6.8,12.6,6.3,12.6 M14.5,5.7c0.5,0,0.9,0.4,0.9,0.9
		c0,0.5-0.4,0.9-0.9,0.9c-0.5,0-0.9-0.4-0.9-0.9C13.7,6.1,14.1,5.7,14.5,5.7 M7.2,6.2c0-0.5,0.4-0.9,0.9-0.9C8.6,5.4,9,5.8,9,6.2
		S8.6,7.1,8.1,7.1C7.6,7.1,7.2,6.7,7.2,6.2 M11.9,15.3c0,0.5-0.4,0.9-0.9,0.9c-0.5,0-0.9-0.4-0.9-0.9c0-0.5,0.4-0.9,0.9-0.9
		C11.5,14.4,11.9,14.8,11.9,15.3 M11,11.2c-0.8,0-1.4-0.6-1.4-1.4c0-0.8,0.6-1.4,1.4-1.4c0.8,0,1.4,0.6,1.4,1.4
		C12.4,10.6,11.8,11.2,11,11.2 M15.2,12.8c-0.5,0-0.9-0.4-0.9-0.9c0-0.5,0.4-0.9,0.9-0.9c0.5,0,0.9,0.4,0.9,0.9
		C16.1,12.4,15.7,12.8,15.2,12.8"/>
</g>
</svg>
