<?xml version="1.0" encoding="utf-8"?>
<!-- Generator: Adobe Illustrator 19.0.0, SVG Export Plug-In . SVG Version: 6.00 Build 0)  -->
<svg version="1.1" id="BeBold" xmlns="http://www.w3.org/2000/svg" xmlns:xlink="http://www.w3.org/1999/xlink" x="0px" y="0px"
	 viewBox="-4 4 14 14" style="enable-background:new -4 4 14 14;" xml:space="preserve">
<style type="text/css">
	.st0{fill:#06FAFD;}
</style>
<g id="Notification">
	<path class="st0" d="M9.8,13.3l-1.5-1.8c-0.2-0.2-0.4-0.6-0.4-0.9V9.1C7.8,6.5,5.7,4.4,3.1,4.2c-2.7-0.1-4.9,2-5,4.6v1.7
		c0,0.4-0.1,0.7-0.4,0.9l-1.5,1.8c-0.3,0.3-0.3,0.7,0,0.9c0.1,0.1,0.3,0.2,0.5,0.2H9.3c0.4,0,0.7-0.3,0.7-0.7
		C10,13.6,9.9,13.4,9.8,13.3z"/>
	<path class="st0" d="M0.4,15.8c0.2,1.2,1.3,2.1,2.6,2c1.2,0.1,2.3-0.8,2.6-2H0.4z"/>
</g>
</svg>
