<?xml version="1.0" encoding="utf-8"?>
<!-- Generator: Adobe Illustrator 19.0.0, SVG Export Plug-In . SVG Version: 6.00 Build 0)  -->
<svg version="1.1" id="Layer_1" xmlns="http://www.w3.org/2000/svg" xmlns:xlink="http://www.w3.org/1999/xlink" x="0px" y="0px"
	 viewBox="0 0 14 14" style="enable-background:new 0 0 14 14;" xml:space="preserve">
<style type="text/css">
	.st0{fill:#FFFFFF;}
</style>
<path id="XMLID_2_" class="st0" d="M7,0C3.1,0,0,3.1,0,7c0,3.9,3.1,7,7,7c3.9,0,7-3.1,7-7C14,3.1,10.9,0,7,0 M10,7.2
	c0,0.1-0.1,0.2-0.2,0.2v0l-4,2c-0.2,0.1-0.5,0-0.7-0.2C5,9.2,5,9.1,5,9V5c0-0.3,0.2-0.5,0.5-0.5c0.1,0,0.2,0,0.2,0.1l4,2
	C10,6.7,10.1,7,10,7.2"/>
</svg>
