<?xml version="1.0" encoding="utf-8"?>
<!-- Generator: Adobe Illustrator 19.0.0, SVG Export Plug-In . SVG Version: 6.00 Build 0)  -->
<svg version="1.1" id="BeBold" xmlns="http://www.w3.org/2000/svg" xmlns:xlink="http://www.w3.org/1999/xlink" x="0px" y="0px"
	 viewBox="-9 -3.4 14 14" style="enable-background:new -9 -3.4 14 14;" xml:space="preserve">
<style type="text/css">
	.st0{fill:#A1A1A1;}
</style>
<path id="Search" class="st0" d="M0.5-1.7c-2.2-2.2-5.7-2.2-7.9,0s-2.2,5.7,0,7.9c1.7,1.7,4.4,2.1,6.6,1l3.3,3.2
	c0.4,0.3,0.9,0.3,1.3,0l0.9-0.9c0.4-0.4,0.4-0.9,0-1.3L1.5,4.9C2.7,2.7,2.3,0,0.5-1.7z M-1.1,4.5c-1.3,1.3-3.3,1.3-4.6,0
	S-7,1.2-5.7,0s3.3-1.3,4.6,0c0,0,0,0,0,0C0.1,1.2,0.1,3.3-1.1,4.5z"/>
</svg>
