<?xml version="1.0" encoding="utf-8"?>
<!-- Generator: Adobe Illustrator 19.0.0, SVG Export Plug-In . SVG Version: 6.00 Build 0)  -->
<svg version="1.1" id="Layer_1" xmlns="http://www.w3.org/2000/svg" xmlns:xlink="http://www.w3.org/1999/xlink" x="0px" y="0px"
	 viewBox="0 0 12 12" style="enable-background:new 0 0 12 12;" xml:space="preserve">
<style type="text/css">
	.st0{fill:#4081C1;}
</style>
<path id="XMLID_5_" class="st0" d="M11.2,4.5l-0.6-0.1c-0.1-0.1-0.1-0.3-0.2-0.4l0.3-0.5c0.3-0.4,0.3-1-0.1-1.4L9.9,1.4
	C9.7,1.2,9.5,1.1,9.2,1.1C9,1.1,8.7,1.2,8.6,1.3L8.1,1.7C7.9,1.6,7.8,1.5,7.6,1.5L7.5,0.9C7.4,0.4,7,0,6.5,0h-1c-0.5,0-1,0.4-1,0.9
	L4.4,1.5C4.2,1.5,4.1,1.6,3.9,1.7L3.5,1.3C3.3,1.2,3.1,1.1,2.8,1.1c-0.3,0-0.5,0.1-0.7,0.3L1.4,2.1C1,2.5,1,3.1,1.3,3.5L1.6,4
	C1.6,4.1,1.5,4.3,1.5,4.4L0.9,4.5C0.4,4.6,0,5,0,5.5v1c0,0.5,0.4,1,0.9,1l0.6,0.1C1.5,7.8,1.6,8,1.7,8.1L1.3,8.6
	C1,9,1.1,9.6,1.4,9.9l0.7,0.7c0.2,0.2,0.5,0.3,0.7,0.3c0.2,0,0.4-0.1,0.6-0.2L4,10.4c0.1,0.1,0.3,0.1,0.4,0.2l0.1,0.6
	C4.6,11.7,5,12,5.5,12h1c0.5,0,1-0.4,1-0.9l0.1-0.6c0.1-0.1,0.3-0.1,0.4-0.2l0.5,0.3c0.2,0.1,0.4,0.2,0.6,0.2c0.3,0,0.5-0.1,0.7-0.3
	l0.7-0.7C11,9.6,11,9,10.7,8.6l-0.3-0.5c0.1-0.1,0.1-0.3,0.2-0.4l0.6-0.1C11.7,7.5,12,7,12,6.5v-1C12,5,11.7,4.6,11.2,4.5 M11.3,6.5
	c0,0.2-0.1,0.3-0.3,0.3L10.3,7C10.1,7,10,7.1,10,7.3C9.9,7.5,9.8,7.7,9.7,7.9c-0.1,0.1-0.1,0.3,0,0.4L10.2,9c0.1,0.1,0.1,0.3,0,0.4
	l-0.7,0.7c-0.1,0.1-0.2,0.1-0.2,0.1c-0.1,0-0.1,0-0.2-0.1L8.3,9.7c-0.1-0.1-0.3-0.1-0.4,0C7.7,9.8,7.5,9.9,7.3,10
	C7.1,10,7,10.1,7,10.3L6.9,11c0,0.2-0.2,0.3-0.3,0.3h-1c-0.2,0-0.3-0.1-0.3-0.3L5,10.3C5,10.1,4.9,10,4.8,10
	C4.6,9.9,4.3,9.8,4.1,9.7c-0.1,0-0.1,0-0.2,0c-0.1,0-0.2,0-0.2,0.1l-0.7,0.5c-0.1,0-0.1,0.1-0.2,0.1c-0.1,0-0.2,0-0.2-0.1L1.9,9.4
	C1.8,9.3,1.8,9.1,1.9,9l0.5-0.6c0.1-0.1,0.1-0.3,0-0.4C2.3,7.7,2.2,7.5,2.1,7.3C2,7.1,1.9,7,1.8,7L1,6.9c-0.2,0-0.3-0.2-0.3-0.3v-1
	c0-0.2,0.1-0.3,0.3-0.3l0.8-0.1C1.9,5,2,4.9,2.1,4.8c0.1-0.2,0.2-0.5,0.3-0.7c0.1-0.1,0.1-0.3,0-0.4L1.9,3.1c-0.1-0.1-0.1-0.3,0-0.4
	l0.7-0.7l0,0c0.1-0.1,0.1-0.1,0.2-0.1c0.1,0,0.1,0,0.2,0.1l0.6,0.5c0.1,0.1,0.3,0.1,0.4,0c0.2-0.1,0.4-0.2,0.7-0.3
	C4.9,2,5,1.9,5,1.8L5.2,1c0-0.2,0.2-0.3,0.3-0.3h1c0.2,0,0.3,0.1,0.3,0.3L7,1.8C7,1.9,7.1,2,7.2,2.1c0.2,0.1,0.5,0.2,0.7,0.3
	c0.1,0.1,0.3,0.1,0.4,0L9,1.9c0.1,0,0.1-0.1,0.2-0.1c0.1,0,0.2,0,0.2,0.1l0.7,0.7c0.1,0.1,0.1,0.3,0,0.4L9.7,3.7
	C9.6,3.8,9.6,4,9.7,4.1C9.8,4.3,9.9,4.5,10,4.8C10,4.9,10.1,5,10.3,5L11,5.2l0,0c0.2,0,0.3,0.2,0.3,0.3V6.5z"/>
<path id="XMLID_2_" class="st0" d="M6,3.7c-1.3,0-2.3,1-2.3,2.3c0,1.3,1,2.3,2.3,2.3c1.3,0,2.3-1,2.3-2.3C8.4,4.7,7.3,3.7,6,3.7
	 M6,7.7C5.1,7.7,4.4,6.9,4.4,6c0-0.9,0.7-1.6,1.6-1.6c0.9,0,1.6,0.7,1.6,1.6C7.7,6.9,6.9,7.7,6,7.7"/>
</svg>
