<?xml version="1.0" encoding="utf-8"?>
<!-- Generator: Adobe Illustrator 19.0.0, SVG Export Plug-In . SVG Version: 6.00 Build 0)  -->
<svg version="1.1" id="Layer_1" xmlns="http://www.w3.org/2000/svg" xmlns:xlink="http://www.w3.org/1999/xlink" x="0px" y="0px"
	 viewBox="0 0 21.5 21.5" style="enable-background:new 0 0 21.5 21.5;" xml:space="preserve">
<style type="text/css">
	.st0{fill:#3295E0;}
	.st1{fill:#FFFFFF;}
</style>
<g id="XMLID_6_">
	<path id="XMLID_7_" class="st0" d="M10.7,21.6c-5.9,0-10.8-4.8-10.8-10.8S4.8,0.1,10.7,0.1s10.8,4.8,10.8,10.8S16.6,21.6,10.7,21.6
		z M10.7,0.8c-5.5,0-10,4.5-10,10s4.5,10,10,10s10-4.5,10-10S16.2,0.8,10.7,0.8z"/>
</g>
<g>
	<path id="XMLID_4_" class="st1" d="M17.2,15.4h-1.9c-0.3,0-0.5-0.2-0.5-0.5V7.1c0-0.3,0.2-0.5,0.5-0.5h1.9c0.3,0,0.5,0.2,0.5,0.5
		v7.8C17.7,15.1,17.5,15.4,17.2,15.4z"/>
</g>
<g>
	<path id="XMLID_3_" class="st1" d="M13.5,15.4h-1.9c-0.3,0-0.5-0.2-0.5-0.5V8.4c0-0.3,0.2-0.5,0.5-0.5h1.9c0.3,0,0.5,0.2,0.5,0.5
		v6.5C13.9,15.1,13.7,15.4,13.5,15.4z"/>
</g>
<g>
	<path id="XMLID_2_" class="st1" d="M9.7,15.4H7.9c-0.3,0-0.5-0.2-0.5-0.5v-4.7c0-0.3,0.2-0.5,0.5-0.5h1.9c0.3,0,0.5,0.2,0.5,0.5
		v4.7C10.2,15.1,10,15.4,9.7,15.4z"/>
</g>
<g>
	<path id="XMLID_1_" class="st1" d="M6,15.4H4.1c-0.3,0-0.5-0.2-0.5-0.5v-2.8c0-0.3,0.2-0.5,0.5-0.5H6c0.3,0,0.5,0.2,0.5,0.5v2.8
		C6.5,15.1,6.3,15.4,6,15.4z"/>
</g>
</svg>
