<?xml version="1.0" encoding="utf-8"?>
<!-- Generator: Adobe Illustrator 19.0.0, SVG Export Plug-In . SVG Version: 6.00 Build 0)  -->
<svg version="1.1" id="Layer_1" xmlns="http://www.w3.org/2000/svg" xmlns:xlink="http://www.w3.org/1999/xlink" x="0px" y="0px"
	 viewBox="0 0 21.5 21.5" style="enable-background:new 0 0 21.5 21.5;" xml:space="preserve">
<style type="text/css">
	.st0{fill:#3295E0;}
	.st1{fill:#FFFFFF;}
</style>
<g id="XMLID_6_">
	<path id="XMLID_7_" class="st0" d="M10.7,21.6c-5.9,0-10.8-4.8-10.8-10.8S4.8,0.1,10.7,0.1s10.8,4.8,10.8,10.8S16.6,21.6,10.7,21.6
		z M10.7,0.8c-5.5,0-10,4.5-10,10s4.5,10,10,10s10-4.5,10-10S16.2,0.8,10.7,0.8z"/>
</g>
<path id="XMLID_5_" class="st1" d="M16.4,11.2c0-1.6-0.6-3-1.7-4c0,0,0,0,0,0c0,0,0,0,0,0c-1-1-2.5-1.7-4-1.7c-1.6,0-3,0.6-4,1.7
	c0,0,0,0,0,0c0,0,0,0,0,0c-1,1-1.7,2.5-1.7,4c0,1.5,0.6,3,1.7,4.1l0,0c0,0,0,0,0,0c0.1,0.1,0.1,0.1,0.2,0.1c0.1,0,0.1,0,0.2-0.1
	c0,0,0,0,0,0l0.9-0.9c0.1-0.1,0.1-0.3,0-0.4c-0.1-0.1-0.3-0.1-0.4,0l-0.7,0.7c-0.8-0.9-1.2-2-1.3-3.2h1c0.2,0,0.3-0.1,0.3-0.3
	c0-0.2-0.1-0.3-0.3-0.3h-1c0.1-1.2,0.6-2.3,1.3-3.2l0.7,0.7c0.1,0.1,0.1,0.1,0.2,0.1s0.1,0,0.2-0.1c0.1-0.1,0.1-0.3,0-0.4L7.3,7.3
	c0.9-0.8,2-1.2,3.2-1.3v1c0,0.2,0.1,0.3,0.3,0.3S11,7.1,11,7V6c1.2,0.1,2.3,0.6,3.2,1.3L13.5,8c-0.1,0.1-0.1,0.3,0,0.4
	c0.1,0.1,0.1,0.1,0.2,0.1s0.1,0,0.2-0.1l0.7-0.7c0.8,0.8,1.2,2,1.3,3.2h-1c-0.2,0-0.3,0.1-0.3,0.3c0,0.2,0.1,0.3,0.3,0.3h1
	c-0.1,1.2-0.5,2.3-1.3,3.2l-0.7-0.7c-0.1-0.1-0.3-0.1-0.4,0c-0.1,0.1-0.1,0.3,0,0.4l0.9,0.9c0.1,0.1,0.1,0.1,0.2,0.1
	c0,0,0.1,0,0.1,0c0,0,0.1,0,0.1-0.1C15.9,14.1,16.4,12.7,16.4,11.2"/>
<path id="XMLID_2_" class="st1" d="M12,7.9c-0.1-0.1-0.3,0-0.4,0.2l-0.8,2c0,0-0.1,0-0.1,0c-0.4,0-0.8,0.2-0.9,0.6
	c-0.2,0.4-0.1,0.8,0.1,1.2c0,0,0.1,0.1,0.1,0.1c0.2,0.2,0.5,0.2,0.7,0.2c0.4,0,0.8-0.2,0.9-0.6c0.2-0.4,0.1-0.8-0.1-1.2
	c0,0-0.1-0.1-0.1-0.1c0,0,0,0-0.1,0l0.8-2C12.2,8.2,12.2,8,12,7.9 M11.1,11.4c-0.1,0.2-0.3,0.3-0.4,0.3c-0.1,0-0.2,0-0.4-0.1
	c-0.1-0.2-0.2-0.4-0.1-0.6c0.1-0.2,0.3-0.3,0.4-0.3c0.1,0,0.1,0,0.2,0c0,0,0,0,0,0c0,0,0,0,0,0c0.1,0,0.1,0,0.2,0.1
	C11.2,11,11.2,11.2,11.1,11.4"/>
</svg>
