<?xml version="1.0" encoding="utf-8"?>
<!-- Generator: Adobe Illustrator 19.0.0, SVG Export Plug-In . SVG Version: 6.00 Build 0)  -->
<svg version="1.1" id="BeBold" xmlns="http://www.w3.org/2000/svg" xmlns:xlink="http://www.w3.org/1999/xlink" x="0px" y="0px"
	 viewBox="-4 4 14 14" style="enable-background:new -4 4 14 14;" xml:space="preserve">
<style type="text/css">
	.st0{fill:#B0FDFD;}
</style>
<path id="Cloud-upload" class="st0" d="M8.4,9.8C8.1,7.3,6,5.4,3.5,5.3c-1.9,0-3.6,1.1-4.4,2.9c-2.3,0.7-3.6,3.1-2.9,5.4
	c0.5,1.8,2.1,3,4,3.1h6.1c2.1,0,3.7-1.7,3.7-3.8c0,0,0,0,0,0C10,11.6,9.4,10.5,8.4,9.8z M0.3,10.9l2.4-2.4c0.2-0.2,0.4-0.2,0.6,0
	c0,0,0,0,0,0l2.4,2.4c0.2,0.2,0.2,0.4,0,0.6c-0.1,0.1-0.2,0.1-0.3,0.1H3.8v2c0,0.5-0.4,0.9-0.8,0.9c-0.5,0-0.9-0.4-0.9-0.9v-2H0.6
	c-0.2,0-0.4-0.2-0.4-0.4C0.2,11.1,0.2,11,0.3,10.9z"/>
</svg>
