<?xml version="1.0" encoding="utf-8"?>
<!-- Generator: Adobe Illustrator 19.0.0, SVG Export Plug-In . SVG Version: 6.00 Build 0)  -->
<svg version="1.1" id="BeBold" xmlns="http://www.w3.org/2000/svg" xmlns:xlink="http://www.w3.org/1999/xlink" x="0px" y="0px"
	 viewBox="-4 4 14 14" style="enable-background:new -4 4 14 14;" xml:space="preserve">
<style type="text/css">
	.st0{fill:#06FAFD;}
</style>
<path id="User" class="st0" d="M-3.2,15.9v-1c0-0.7,0.5-1.4,1.2-1.7l0,0c3.2-1.3,6.8-1.3,10,0l0,0c0.7,0.3,1.1,1,1.2,1.7v1
	c0,1.1-0.9,2.1-2.1,2.1c0,0,0,0,0,0h-8.2C-2.2,18-3.2,17.1-3.2,15.9C-3.2,16-3.2,15.9-3.2,15.9z M3,4C1.1,4-0.4,5.5-0.4,7.4
	c0,1.9,1.5,3.4,3.4,3.4c1.9,0,3.4-1.5,3.4-3.4c0,0,0,0,0,0C6.4,5.5,4.9,4,3,4C3,4,3,4,3,4z"/>
</svg>
