<?xml version="1.0" encoding="utf-8"?>
<!-- Generator: Adobe Illustrator 19.0.0, SVG Export Plug-In . SVG Version: 6.00 Build 0)  -->
<svg version="1.1" id="Layer_1" xmlns="http://www.w3.org/2000/svg" xmlns:xlink="http://www.w3.org/1999/xlink" x="0px" y="0px"
	 viewBox="0 0 21.5 21.5" style="enable-background:new 0 0 21.5 21.5;" xml:space="preserve">
<style type="text/css">
	.st0{fill:#3295E0;}
	.st1{fill:#FFFFFF;}
</style>
<g id="XMLID_6_">
	<path id="XMLID_7_" class="st0" d="M10.8,21.5C4.8,21.5,0,16.7,0,10.8C0,4.8,4.8,0,10.8,0c5.9,0,10.8,4.8,10.8,10.8
		C21.5,16.7,16.7,21.5,10.8,21.5z M10.8,0.7c-5.5,0-10,4.5-10,10s4.5,10,10,10c5.5,0,10-4.5,10-10S16.3,0.7,10.8,0.7z"/>
</g>
<g id="XMLID_2_">
	<path id="XMLID_11_" class="st1" d="M15.7,8.9V7.1c0-0.7-0.6-1.3-1.3-1.3H6.7C6,5.9,5.4,6.4,5.4,7.1v7.2c0,0.7,0.6,1.3,1.3,1.3h7.7
		c0.7,0,1.3-0.6,1.3-1.3v-1.7c0.4-0.2,0.7-0.6,0.7-1V9.9C16.4,9.5,16.1,9,15.7,8.9 M15,14.4c0,0.3-0.3,0.6-0.6,0.6H6.7
		c-0.3,0-0.6-0.3-0.6-0.6V7.1c0-0.3,0.3-0.6,0.6-0.6h7.7c0.3,0,0.6,0.3,0.6,0.6v1.7h-1.5c-1.1,0-1.9,0.9-1.9,1.9
		c0,1.1,0.9,1.9,1.9,1.9H15V14.4z M15.8,11.6c0,0.3-0.2,0.5-0.5,0.5h-1.7c-0.7,0-1.3-0.6-1.3-1.3c0-0.7,0.6-1.3,1.3-1.3h1.7
		c0.3,0,0.5,0.2,0.5,0.5V11.6z"/>
</g>
</svg>
